<svg xmlns="http://www.w3.org/2000/svg" viewBox="0 0 96 96">
  <defs><linearGradient id="g" x1="16" y1="12" x2="80" y2="86"><stop stop-color="#8bd34f"/><stop offset="1" stop-color="#2f8f4e"/></linearGradient></defs>
  <path d="M48 8 82 24v28c0 20-14 30-34 38-20-8-34-18-34-38V24L48 8Z" fill="url(#g)"/>
  <path d="M29 54c10-20 25-26 43-15-13 2-19 9-23 22-6-7-12-9-20-7Z" fill="#fff"/>
  <circle cx="61" cy="38" r="3" fill="#225b35"/>
  <path d="M23 27l5 3 5-3-3 5 3 5-5-3-5 3 3-5-3-5Z" fill="#fff2a3"/>
</svg>
