<svg xmlns="http://www.w3.org/2000/svg" viewBox="0 0 96 96">
  <defs><linearGradient id="g" x1="15" y1="12" x2="82" y2="84"><stop stop-color="#b6dd70"/><stop offset="1" stop-color="#688f3c"/></linearGradient></defs>
  <path d="M48 8 82 24v28c0 20-14 30-34 38-20-8-34-18-34-38V24L48 8Z" fill="url(#g)"/>
  <path d="M28 56c10-20 25-24 40-12-11 0-17 7-21 20-5-5-12-8-19-8Z" fill="#fff"/>
  <path d="M62 31c6 8 6 18 0 28M72 26c9 12 9 27 0 40" fill="none" stroke="#ecf5df" stroke-width="5" stroke-linecap="round" opacity=".85"/>
  <path d="M22 75h52" stroke="#fff" stroke-width="5" stroke-linecap="round"/>
</svg>
