<svg xmlns="http://www.w3.org/2000/svg" viewBox="0 0 96 96">
  <defs><linearGradient id="g" x1="17" y1="13" x2="79" y2="84"><stop stop-color="#7a6cff"/><stop offset="1" stop-color="#2b315f"/></linearGradient></defs>
  <path d="M48 8 82 24v28c0 20-14 30-34 38-20-8-34-18-34-38V24L48 8Z" fill="url(#g)"/>
  <path d="M61 24c-12 5-18 18-14 31 3 9 11 16 21 17-6 6-17 7-26 1-13-8-17-26-8-39 6-9 17-14 27-10Z" fill="#fff7c6"/>
  <path d="M30 61c9-15 25-20 42-11-12 2-19 9-23 21-5-6-11-9-19-10Z" fill="#ffffff"/>
  <circle cx="58" cy="45" r="3" fill="#d9393c"/>
</svg>
