<svg xmlns="http://www.w3.org/2000/svg" viewBox="0 0 96 96">
  <defs><linearGradient id="g" x1="16" y1="12" x2="78" y2="86"><stop stop-color="#59cbe8"/><stop offset="1" stop-color="#287fb9"/></linearGradient></defs>
  <path d="M48 8 82 24v28c0 20-14 30-34 38-20-8-34-18-34-38V24L48 8Z" fill="url(#g)"/>
  <path d="M33 35c14-9 29 1 27 16-2 12-12 19-27 19 9-5 12-14 10-24-1-5-5-9-10-11Z" fill="#fff"/>
  <path d="M56 32l14 3-12 6" fill="#ffcc59"/>
  <path d="M24 70c9-5 18-5 27 0 7 4 14 4 21 0" fill="none" stroke="#d8f7ff" stroke-width="5" stroke-linecap="round"/>
</svg>
